# xmcd
#
# Track frame offsets:
#	150
#	12210
#	23983
#	35685
#	54243
#	66440
#	79818
#	95018
#	106655
#	119588
#	129998
#	142950
#
# Disc length: 2130 seconds
#
# Revision: 2
# Processed by: cddbd v1.5.2PL0 Copyright (c) Steve Scherf et al.
# Submitted via: audiograbber 1.83.01
#
DISCID=9d08500c
DTITLE=Tom Astor - Auf Achse
DYEAR=1991
DGENRE=Schlager
TTITLE0=Gute Fahrt auf allen Strassen
TTITLE1=Freie Fahrt in ganz Europa
TTITLE2=Und dann kam er vor Gericht
TTITLE3=Du musst wieder hinaus
TTITLE4=Trucker hör'n den Country Club
TTITLE5=Hej, lieber Schutzengel
TTITLE6=Immer auf Achse
TTITLE7=Einmal über'n Highway donnern
TTITLE8=Jeden Sonntag nimmt er Abschied für 'ne Woche
TTITLE9=Ich fahr Flüstertrack
TTITLE10=Gut' Nacht, mein Sohn
TTITLE11=Sie ist gerne seine Frau
EXTD=
EXTT0=
EXTT1=
EXTT2=
EXTT3=
EXTT4=
EXTT5=
EXTT6=
EXTT7=
EXTT8=
EXTT9=
EXTT10=
EXTT11=
PLAYORDER=
